# xmcd
#
# Track frame offsets:
#	150
#	16108
#	34397
#	48723
#	61111
#	74336
#	86650
#	103011
#	117861
#	135555
#
# Disc length: 2012 seconds
#
# Revision: 1
# Processed by: cddbd v1.5.2PL0 Copyright (c) Steve Scherf et al.
# Submitted via: EasyCDDAExtractor 16.0.6.1
#
DISCID=8507da0a
DTITLE=Owen Mac - Heart and soul
DYEAR=2017
DGENRE=Country
TTITLE0=Erin tenessee
TTITLE1=Meet you in church sunday morning 
TTITLE2=My feet are firmly on the ground
TTITLE3=I wish that I could fall in love today
TTITLE4=My little grey home in the west
TTITLE5=Cottage by the sea
TTITLE6=Don't you ever get tired of hurting me
TTITLE7=This great big wonderful world of country music
TTITLE8=The nearest to perfect
TTITLE9=Lord i'm ready to go home
EXTD=
EXTT0=
EXTT1=
EXTT2=
EXTT3=
EXTT4=
EXTT5=
EXTT6=
EXTT7=
EXTT8=
EXTT9=
PLAYORDER=
